<svg width="108" height="56" viewBox="0 0 108 56" fill="none" xmlns="http://www.w3.org/2000/svg">
<path d="M27.832 0H32.756V30.4001H27.832V0Z" fill="white"/>
<path d="M49.8819 20.7621C49.8819 25.472 46.0284 25.9001 44.7438 25.9001C41.7467 25.9001 41.3185 23.117 41.3185 21.6184V9.84375H36.3945V21.4043C36.3945 24.1874 37.2509 26.7565 38.9636 28.2551C40.4621 29.7537 42.3889 30.3959 44.7438 30.3959C46.4565 30.3959 48.5974 29.9677 49.8819 28.6832V30.3959H54.8058V9.84375H49.8819V20.7621Z" fill="white"/>
<path d="M64.4384 2.35156H59.5144V9.84454H55.875V14.5544H59.5144V30.3967H64.4384V14.5544H68.0778V9.84454H64.4384V2.35156Z" fill="white"/>
<path d="M83.4914 24.1859C82.4209 25.0423 80.9224 25.6845 79.4238 25.6845C75.9984 25.6845 73.6435 23.1155 73.6435 19.6901C73.6435 16.2648 75.9984 13.9098 79.4238 13.9098C80.9224 13.9098 82.4209 14.338 83.4914 15.4084L84.1336 16.0507L87.559 12.8394L86.7026 12.1972C84.7759 10.4845 82.2069 9.41406 79.4238 9.41406C73.4294 9.41406 68.9336 13.9098 68.9336 19.9042C68.9336 25.8986 73.4294 30.3944 79.4238 30.3944C82.2069 30.3944 84.7759 29.324 86.7026 27.6113L87.559 26.969L84.1336 23.5437L83.4914 24.1859Z" fill="white"/>
<path d="M104.9 11.5606C103.401 10.062 101.903 9.41974 99.5479 9.41974C97.8352 9.41974 96.1225 9.84791 94.838 11.1324V0H89.9141V30.4001H94.838V19.0536C94.838 14.3437 98.0493 13.9155 99.3338 13.9155C102.331 13.9155 102.117 16.6986 102.117 18.1972V30.186H107.041V18.4113C107.041 15.6282 106.399 13.0592 104.9 11.5606Z" fill="white"/>
<path d="M79.2105 23.3351C81.1023 23.3351 82.6359 21.8015 82.6359 19.9097C82.6359 18.018 81.1023 16.4844 79.2105 16.4844C77.3187 16.4844 75.7852 18.018 75.7852 19.9097C75.7852 21.8015 77.3187 23.3351 79.2105 23.3351Z" fill="#EF4335"/>
<path d="M20.9803 22.9044C19.2677 24.617 16.6986 25.6875 13.9155 25.6875C8.5634 25.6875 4.70987 21.4058 4.70987 15.6255C4.70987 9.84519 8.5634 5.56349 14.1296 5.56349C16.6986 5.56349 19.2677 6.63391 21.1944 8.56067L21.8367 9.20293L25.0479 5.99166L24.4057 5.3494C21.6226 2.56629 17.9831 1.0677 14.1296 1.0677C5.99438 0.853614 0 7.27617 0 15.6255C0 23.9748 5.99438 30.3973 13.9155 30.3973C17.7691 30.3973 21.6226 28.8987 24.1916 26.1156L24.8339 25.4734L21.6226 22.2621L20.9803 22.9044Z" fill="white"/>
<path d="M5.718 44.044H2.262L1.95 46.96C1.992 46.768 2.508 46.228 3.636 46.228C5.094 46.228 5.862 47.362 5.862 49.066C5.862 51.04 4.92 52.12 3.306 52.12C1.554 52.12 0.762 51.01 0.762 49.51V49.492H1.776V49.51C1.782 50.722 2.346 51.22 3.318 51.22C4.248 51.22 4.83 50.53 4.83 49.084C4.83 47.806 4.35 47.128 3.45 47.128C2.574 47.128 2.01 47.74 1.836 48.184L0.852 47.932L1.398 43.15H5.718V44.044ZM11.7106 42.622L7.93059 52.93H7.06659L10.8526 42.622H11.7106ZM17.8938 44.044H14.4378L14.1258 46.96C14.1678 46.768 14.6838 46.228 15.8118 46.228C17.2698 46.228 18.0378 47.362 18.0378 49.066C18.0378 51.04 17.0958 52.12 15.4818 52.12C13.7298 52.12 12.9378 51.01 12.9378 49.51V49.492H13.9518V49.51C13.9578 50.722 14.5218 51.22 15.4938 51.22C16.4238 51.22 17.0058 50.53 17.0058 49.084C17.0058 47.806 16.5258 47.128 15.6258 47.128C14.7498 47.128 14.1858 47.74 14.0118 48.184L13.0278 47.932L13.5738 43.15H17.8938V44.044Z" fill="#D6D6D6"/>
<path d="M31.9234 41L33.537 45.1633L37.9952 45.4114L34.5342 48.2326L35.676 52.5493L31.9234 50.1295L28.1708 52.5493L29.3125 48.2326L25.8515 45.4114L30.3097 45.1633L31.9234 41Z" fill="#EF4335"/>
<path d="M48.0952 41L49.7089 45.1633L54.1671 45.4114L50.7061 48.2326L51.8478 52.5493L48.0952 50.1295L44.3426 52.5493L45.4843 48.2326L42.0234 45.4114L46.4816 45.1633L48.0952 41Z" fill="#EF4335"/>
<path d="M64.2671 41L65.8807 45.1633L70.3389 45.4114L66.878 48.2326L68.0197 52.5493L64.2671 50.1295L60.5145 52.5493L61.6562 48.2326L58.1953 45.4114L62.6535 45.1633L64.2671 41Z" fill="#EF4335"/>
<path d="M80.4429 41L82.0565 45.1633L86.5147 45.4114L83.0538 48.2326L84.1955 52.5493L80.4429 50.1295L76.6903 52.5493L77.832 48.2326L74.3711 45.4114L78.8293 45.1633L80.4429 41Z" fill="#EF4335"/>
<path d="M96.6148 41L98.2284 45.1633L102.687 45.4114L99.2257 48.2326L100.367 52.5493L96.6148 50.1295L92.8622 52.5493L94.0039 48.2326L90.5429 45.4114L95.0012 45.1633L96.6148 41Z" fill="#EF4335"/>
</svg>
