<svg width="149" height="18" viewBox="0 0 149 18" fill="none" xmlns="http://www.w3.org/2000/svg">
<path d="M142.923 16.5073C141.763 16.5073 140.741 16.2656 139.858 15.7823C138.974 15.2921 138.28 14.6155 137.776 13.7525C137.279 12.8895 137.03 11.9022 137.03 10.7906C137.03 9.67218 137.279 8.68834 137.776 7.83913C138.28 6.98302 138.974 6.31332 139.858 5.83004C140.741 5.34675 141.763 5.1051 142.923 5.1051C144.083 5.1051 145.105 5.34675 145.988 5.83004C146.872 6.31332 147.563 6.98302 148.06 7.83913C148.564 8.68834 148.816 9.67218 148.816 10.7906C148.816 11.9022 148.564 12.8895 148.06 13.7525C147.563 14.6155 146.872 15.2921 145.988 15.7823C145.105 16.2656 144.083 16.5073 142.923 16.5073ZM142.923 14.2807C143.551 14.2807 144.1 14.1357 144.57 13.8457C145.039 13.5557 145.405 13.1519 145.667 12.634C145.93 12.1093 146.061 11.4949 146.061 10.7906C146.061 10.0864 145.93 9.47886 145.667 8.96796C145.405 8.45015 145.039 8.04971 144.57 7.76664C144.1 7.48357 143.551 7.34204 142.923 7.34204C142.302 7.34204 141.753 7.48357 141.276 7.76664C140.807 8.04971 140.441 8.45015 140.179 8.96796C139.916 9.47886 139.785 10.0864 139.785 10.7906C139.785 11.4949 139.916 12.1093 140.179 12.634C140.441 13.1519 140.807 13.5557 141.276 13.8457C141.753 14.1357 142.302 14.2807 142.923 14.2807Z" fill="white"/>
<path d="M132.54 16.2898L132.54 5.29151L135.233 5.29151L135.233 16.2898L132.54 16.2898ZM133.897 3.2617C133.455 3.2617 133.068 3.14433 132.737 2.90959C132.412 2.66795 132.25 2.3331 132.25 1.90504C132.25 1.48389 132.412 1.15594 132.737 0.921202C133.068 0.686462 133.455 0.569092 133.897 0.569092C134.332 0.569092 134.711 0.686462 135.036 0.921202C135.36 1.15594 135.523 1.48389 135.523 1.90504C135.523 2.3331 135.36 2.66795 135.036 2.90959C134.711 3.14433 134.332 3.2617 133.897 3.2617Z" fill="white"/>
<path d="M124.122 16.5176C123.218 16.5176 122.379 16.3002 121.606 15.8652C120.839 15.4233 120.225 14.7743 119.762 13.9182C119.3 13.0621 119.068 12.0092 119.068 10.7596C119.068 9.54447 119.303 8.51576 119.773 7.67346C120.249 6.83115 120.87 6.19252 121.637 5.75756C122.41 5.3226 123.238 5.10512 124.122 5.10512C124.985 5.10512 125.783 5.31915 126.514 5.74721C127.246 6.16836 127.833 6.75521 128.275 7.50776C128.717 8.26031 128.938 9.12332 128.938 10.0968C128.938 10.1244 128.938 10.152 128.938 10.1797C128.938 10.2073 128.938 10.2349 128.938 10.2625L127.591 10.2936C127.591 10.2729 127.591 10.2521 127.591 10.2314C127.591 10.2038 127.591 10.1797 127.591 10.1589C127.591 9.61351 127.453 9.13713 127.177 8.72979C126.908 8.32244 126.556 8.00485 126.121 7.77702C125.693 7.54228 125.237 7.42491 124.754 7.42491C123.96 7.42491 123.283 7.69417 122.724 8.23269C122.165 8.76431 121.885 9.60661 121.885 10.7596C121.885 11.9057 122.165 12.7514 122.724 13.2969C123.283 13.8423 123.96 14.115 124.754 14.115C125.258 14.115 125.724 13.9942 126.152 13.7525C126.58 13.5109 126.925 13.1795 127.188 12.7583C127.457 12.3303 127.591 11.8401 127.591 11.2878L128.938 11.3499C128.938 12.3165 128.72 13.1933 128.285 13.9804C127.857 14.7605 127.281 15.3785 126.556 15.8341C125.831 16.2898 125.02 16.5176 124.122 16.5176ZM127.591 16.2898L127.591 0.103088L130.326 0.103088L130.326 16.2898L127.591 16.2898Z" fill="white"/>
<path d="M111.041 16.4969C110.261 16.4969 109.612 16.3657 109.094 16.1034C108.583 15.841 108.179 15.4958 107.882 15.0677C107.592 14.6397 107.385 14.1668 107.261 13.6489C107.144 13.1311 107.085 12.6133 107.085 12.0955C107.085 11.8401 107.085 11.5743 107.085 11.2981C107.085 11.0219 107.085 10.7423 107.085 10.4592L107.085 5.2915L109.819 5.2915L109.819 10.0346C109.819 10.2832 109.819 10.5214 109.819 10.7492C109.819 10.977 109.819 11.1911 109.819 11.3913C109.819 11.8815 109.878 12.3372 109.995 12.7583C110.112 13.1726 110.326 13.5074 110.637 13.7629C110.955 14.0183 111.4 14.146 111.973 14.146C112.519 14.146 112.988 13.9872 113.382 13.6697C113.775 13.3452 114.079 12.9378 114.293 12.4476C114.514 11.9574 114.624 11.4603 114.624 10.9563L115.556 11.5777C115.556 12.2474 115.453 12.8791 115.246 13.4729C115.039 14.0597 114.738 14.581 114.345 15.0367C113.951 15.4923 113.475 15.8514 112.915 16.1137C112.363 16.3692 111.738 16.4969 111.041 16.4969ZM114.624 16.2898L114.624 5.2915L117.348 5.2915L117.348 16.2898L114.624 16.2898Z" fill="white"/>
<path d="M102.884 16.4969C102.49 16.4969 102.09 16.4589 101.683 16.383C101.275 16.3071 100.902 16.1655 100.564 15.9584C100.226 15.7513 99.9531 15.4475 99.746 15.0471C99.5389 14.6466 99.4353 14.1185 99.4353 13.4626C99.4353 13.3107 99.4353 13.1588 99.4353 13.0069C99.4353 12.8481 99.4353 12.6858 99.4353 12.5201L99.4353 7.46633L96.8359 7.46633L96.8359 5.29153L97.8923 5.29153C98.2513 5.29153 98.5343 5.27772 98.7415 5.25011C98.9486 5.21559 99.1005 5.13964 99.1971 5.02227C99.2938 4.9049 99.3559 4.72194 99.3836 4.4734C99.4181 4.21794 99.4353 3.86583 99.4353 3.41706L99.4353 1.66687L102.169 1.66687L102.169 5.29153L105.442 5.29153L105.442 7.46633L102.169 7.46633L102.169 11.8781C102.169 12.0092 102.169 12.1404 102.169 12.2716C102.169 12.3959 102.169 12.5167 102.169 12.6341C102.169 13.145 102.232 13.5558 102.356 13.8664C102.48 14.1771 102.773 14.3325 103.236 14.3325C103.457 14.3325 103.664 14.3118 103.857 14.2703C104.058 14.2289 104.206 14.1875 104.303 14.1461L104.303 16.2794C104.172 16.3278 103.982 16.3761 103.733 16.4244C103.485 16.4728 103.202 16.4969 102.884 16.4969Z" fill="white"/>
<path d="M90.5323 16.5176C89.4483 16.5176 88.5025 16.345 87.6947 15.9998C86.8869 15.6546 86.2586 15.1368 85.8099 14.4464C85.3611 13.7491 85.1367 12.886 85.1367 11.8573C85.1367 11.74 85.1367 11.6364 85.1367 11.5466C85.1367 11.45 85.1367 11.343 85.1367 11.2256L87.8604 11.2256C87.8604 11.3292 87.8604 11.4258 87.8604 11.5156C87.8604 11.5984 87.8604 11.6951 87.8604 11.8056C87.8604 12.634 88.0848 13.2554 88.5335 13.6697C88.9892 14.077 89.6589 14.2807 90.5426 14.2807C91.4333 14.2807 92.1133 14.1322 92.5828 13.8354C93.0592 13.5385 93.2974 13.0621 93.2974 12.4062C93.2974 11.9298 93.1351 11.5259 92.8106 11.1945C92.4931 10.8562 92.0546 10.5594 91.4954 10.3039C90.9362 10.0485 90.301 9.81026 89.5899 9.58933C88.789 9.34078 88.0606 9.01974 87.4047 8.62621C86.7488 8.23267 86.2241 7.73558 85.8306 7.13492C85.437 6.53426 85.2403 5.79552 85.2403 4.9187C85.2403 4.04187 85.4647 3.29623 85.9134 2.68176C86.3691 2.06729 86.9905 1.60127 87.7775 1.28368C88.5715 0.959183 89.4725 0.796936 90.4805 0.796936C91.5368 0.796936 92.4654 0.962635 93.2663 1.29403C94.0741 1.62543 94.7058 2.11907 95.1615 2.77497C95.6172 3.43086 95.845 4.249 95.845 5.22938C95.845 5.36056 95.845 5.47448 95.845 5.57113C95.845 5.66779 95.845 5.77826 95.845 5.90253L93.111 5.90253C93.111 5.81278 93.111 5.72303 93.111 5.63327C93.111 5.53661 93.111 5.44341 93.111 5.35366C93.111 4.56659 92.8969 3.98664 92.4689 3.61382C92.0408 3.23409 91.3918 3.04423 90.5219 3.04423C89.6727 3.04423 89.0203 3.19267 88.5646 3.48954C88.1089 3.78642 87.8811 4.25935 87.8811 4.90834C87.8811 5.39163 88.0364 5.79552 88.3471 6.12001C88.6578 6.44451 89.0824 6.72757 89.6209 6.96922C90.1664 7.20396 90.7843 7.44215 91.4747 7.6838C92.393 7.98758 93.1869 8.33278 93.8566 8.71941C94.5263 9.09914 95.0441 9.57552 95.4101 10.1486C95.776 10.7147 95.9589 11.4362 95.9589 12.313C95.9589 13.2105 95.7311 13.9734 95.2754 14.6017C94.8266 15.2231 94.1949 15.6995 93.3802 16.0309C92.5725 16.3554 91.6231 16.5176 90.5323 16.5176Z" fill="white"/>
<path d="M78.4479 0.103088L78.4479 16.2898L75.7656 16.2898L75.7656 0.103088L78.4479 0.103088Z" fill="white"/>
<path d="M63.5886 11.6709L63.5886 9.73431L71.2832 9.73431L70.9725 10.2521C70.9725 10.2107 70.9725 10.1658 70.9725 10.1175C70.9725 10.0623 70.9725 10.0174 70.9725 9.98286C70.9725 9.50648 70.8655 9.06116 70.6515 8.64692C70.4374 8.22576 70.113 7.88746 69.678 7.63201C69.243 7.36965 68.6907 7.23848 68.021 7.23848C67.3582 7.23848 66.7817 7.38001 66.2915 7.66308C65.8082 7.93924 65.432 8.33968 65.1627 8.8644C64.9003 9.38911 64.7692 10.0174 64.7692 10.7492C64.7692 11.5018 64.8969 12.1508 65.1523 12.6962C65.4078 13.2347 65.7806 13.649 66.2708 13.9389C66.7679 14.222 67.372 14.3635 68.0831 14.3635C68.5664 14.3635 68.9841 14.3187 69.3362 14.2289C69.6883 14.1391 69.9749 14.0183 70.1958 13.8664C70.4236 13.7076 70.5928 13.5385 70.7033 13.359C70.8206 13.1795 70.8897 13 70.9104 12.8205L73.6237 12.8205C73.5823 13.283 73.4269 13.7353 73.1577 14.1771C72.8953 14.6121 72.5259 15.0091 72.0496 15.3681C71.5732 15.7202 70.9932 16.0033 70.3097 16.2173C69.6331 16.4244 68.8599 16.528 67.9899 16.528C66.8093 16.528 65.7772 16.2863 64.8934 15.803C64.0097 15.3197 63.3193 14.6466 62.8222 13.7836C62.332 12.9206 62.0869 11.9333 62.0869 10.8217C62.0869 9.68253 62.3355 8.68489 62.8326 7.82878C63.3366 6.97267 64.0339 6.30642 64.9245 5.83004C65.8151 5.34675 66.8369 5.1051 67.9899 5.1051C69.1774 5.1051 70.2027 5.34675 71.0657 5.83004C71.9356 6.31332 72.6053 6.98647 73.0748 7.84949C73.5443 8.7056 73.779 9.70325 73.779 10.8424C73.779 10.9874 73.7756 11.1428 73.7687 11.3085C73.7618 11.4742 73.7514 11.595 73.7376 11.6709L63.5886 11.6709Z" fill="white"/>
<path d="M57.6378 16.2898L57.6378 11.412C57.6378 11.1359 57.6378 10.8942 57.6378 10.6871C57.6378 10.4731 57.6378 10.2797 57.6378 10.1071C57.6378 9.61004 57.5653 9.16473 57.4204 8.77119C57.2823 8.37075 57.0406 8.05661 56.6954 7.82878C56.3571 7.60094 55.8876 7.48702 55.287 7.48702C54.7623 7.48702 54.2962 7.61475 53.8889 7.8702C53.4816 8.11875 53.1605 8.46396 52.9258 8.90582C52.6979 9.34078 52.584 9.84478 52.584 10.4178L51.6623 9.84823C51.6623 8.92999 51.8694 8.1153 52.2837 7.40417C52.7048 6.68615 53.2675 6.12346 53.9718 5.71612C54.676 5.30877 55.4561 5.1051 56.3123 5.1051C57.196 5.1051 57.9382 5.27771 58.5388 5.62291C59.1464 5.96812 59.6021 6.45831 59.9058 7.09349C60.2165 7.72867 60.3719 8.47431 60.3719 9.33042C60.3719 9.66182 60.3719 10.0346 60.3719 10.4489C60.3719 10.8631 60.3719 11.2705 60.3719 11.6709L60.3719 16.2898L57.6378 16.2898ZM49.8604 16.2898L49.8604 5.29151L52.584 5.29151L52.584 16.2898L49.8604 16.2898Z" fill="white"/>
<path d="M41.3457 16.4969C40.5655 16.4969 39.9166 16.3657 39.3987 16.1034C38.8878 15.841 38.484 15.4958 38.1871 15.0677C37.8971 14.6397 37.69 14.1668 37.5657 13.6489C37.4483 13.1311 37.3896 12.6133 37.3896 12.0955C37.3896 11.8401 37.3896 11.5743 37.3896 11.2981C37.3896 11.0219 37.3896 10.7423 37.3896 10.4592L37.3896 5.2915L40.1237 5.2915L40.1237 10.0346C40.1237 10.2832 40.1237 10.5214 40.1237 10.7492C40.1237 10.977 40.1237 11.1911 40.1237 11.3913C40.1237 11.8815 40.1824 12.3372 40.2997 12.7583C40.4171 13.1726 40.6311 13.5074 40.9418 13.7629C41.2594 14.0183 41.7047 14.146 42.2778 14.146C42.8232 14.146 43.2927 13.9872 43.6862 13.6697C44.0797 13.3452 44.3835 12.9378 44.5976 12.4476C44.8185 11.9574 44.9289 11.4603 44.9289 10.9563L45.861 11.5777C45.861 12.2474 45.7574 12.8791 45.5503 13.4729C45.3432 14.0597 45.0429 14.581 44.6493 15.0367C44.2558 15.4923 43.7794 15.8514 43.2202 16.1137C42.6678 16.3692 42.043 16.4969 41.3457 16.4969ZM44.9289 16.2898L44.9289 5.2915L47.6526 5.2915L47.6526 16.2898L44.9289 16.2898Z" fill="white"/>
<path d="M37.1226 3.1892L32.2863 3.1892L33.2908 1.83254L33.2908 16.2898L30.5568 16.2898L30.5568 1.83254L31.6131 3.1892L26.7354 3.1892L26.7354 1.0144L37.1226 1.0144L37.1226 3.1892Z" fill="white"/>
<ellipse cx="8.87588" cy="8.80863" rx="8.87588" ry="8.80863" fill="#97EE30"/>
</svg>
